<mxfile host="app.diagrams.net" agent="Mozilla/5.0 (Macintosh; Intel Mac OS X 10_15_7) AppleWebKit/605.1.15 (KHTML, like Gecko) Version/17.6 Safari/605.1.15" version="24.7.13">
  <diagram name="Page-1" id="-H_mtQnk-PTXWXPvYvuk">
    <mxGraphModel dx="901" dy="581" grid="1" gridSize="10" guides="1" tooltips="1" connect="1" arrows="1" fold="1" page="1" pageScale="1" pageWidth="1169" pageHeight="827" math="0" shadow="0">
      <root>
        <mxCell id="0" />
        <mxCell id="1" parent="0" />
        <mxCell id="8cPuCwgMG0-DC93ZxVvM-23" value="" style="rounded=1;whiteSpace=wrap;html=1;" vertex="1" parent="1">
          <mxGeometry x="720" y="310" width="270" height="210" as="geometry" />
        </mxCell>
        <mxCell id="8cPuCwgMG0-DC93ZxVvM-24" value="" style="edgeStyle=orthogonalEdgeStyle;rounded=0;orthogonalLoop=1;jettySize=auto;html=1;" edge="1" parent="1" source="8cPuCwgMG0-DC93ZxVvM-22" target="8cPuCwgMG0-DC93ZxVvM-2">
          <mxGeometry relative="1" as="geometry" />
        </mxCell>
        <mxCell id="8cPuCwgMG0-DC93ZxVvM-22" value="" style="rounded=1;whiteSpace=wrap;html=1;align=left;" vertex="1" parent="1">
          <mxGeometry x="720" y="90" width="270" height="210" as="geometry" />
        </mxCell>
        <mxCell id="8cPuCwgMG0-DC93ZxVvM-32" value="" style="edgeStyle=orthogonalEdgeStyle;rounded=0;orthogonalLoop=1;jettySize=auto;html=1;" edge="1" parent="1" source="zA23MoTUsTF4_91t8viU-3" target="8cPuCwgMG0-DC93ZxVvM-30">
          <mxGeometry relative="1" as="geometry" />
        </mxCell>
        <mxCell id="zA23MoTUsTF4_91t8viU-3" value="pymongo-api" style="rounded=1;whiteSpace=wrap;html=1;" parent="1" vertex="1">
          <mxGeometry x="360" y="290" width="120" height="60" as="geometry" />
        </mxCell>
        <mxCell id="zA23MoTUsTF4_91t8viU-4" style="edgeStyle=orthogonalEdgeStyle;rounded=0;orthogonalLoop=1;jettySize=auto;html=1;exitX=1;exitY=0.5;exitDx=0;exitDy=0;" parent="1" source="zA23MoTUsTF4_91t8viU-3" edge="1">
          <mxGeometry relative="1" as="geometry">
            <mxPoint x="560" y="320" as="targetPoint" />
          </mxGeometry>
        </mxCell>
        <mxCell id="8cPuCwgMG0-DC93ZxVvM-1" value="&lt;div style=&quot;text-align: start; background-color: rgb(255, 255, 255); font-size: 11px; line-height: 50%;&quot;&gt;&lt;pre style=&quot;font-family: &amp;quot;JetBrains Mono&amp;quot;, monospace; line-height: 50%;&quot;&gt;mongos_router -&lt;/pre&gt;&lt;pre style=&quot;font-family: &amp;quot;JetBrains Mono&amp;quot;, monospace; line-height: 50%;&quot;&gt;роутер&lt;/pre&gt;&lt;/div&gt;" style="rounded=1;whiteSpace=wrap;html=1;" vertex="1" parent="1">
          <mxGeometry x="560" y="290" width="120" height="60" as="geometry" />
        </mxCell>
        <mxCell id="8cPuCwgMG0-DC93ZxVvM-2" value="&lt;div style=&quot;text-align: start; background-color: rgb(255, 255, 255); font-size: 10px; line-height: 50%;&quot;&gt;&lt;pre style=&quot;font-family: &amp;quot;JetBrains Mono&amp;quot;, monospace; line-height: 50%;&quot;&gt;configSrv -&lt;/pre&gt;&lt;pre style=&quot;font-family: &amp;quot;JetBrains Mono&amp;quot;, monospace; line-height: 50%;&quot;&gt;конфигурационный&lt;/pre&gt;&lt;pre style=&quot;font-family: &amp;quot;JetBrains Mono&amp;quot;, monospace; line-height: 50%;&quot;&gt; сервер&lt;/pre&gt;&lt;/div&gt;" style="rounded=1;whiteSpace=wrap;html=1;" vertex="1" parent="1">
          <mxGeometry x="560" y="180" width="120" height="60" as="geometry" />
        </mxCell>
        <mxCell id="8cPuCwgMG0-DC93ZxVvM-3" value="" style="endArrow=classic;html=1;rounded=0;entryX=0.5;entryY=1;entryDx=0;entryDy=0;" edge="1" parent="1" target="8cPuCwgMG0-DC93ZxVvM-2">
          <mxGeometry width="50" height="50" relative="1" as="geometry">
            <mxPoint x="620" y="290" as="sourcePoint" />
            <mxPoint x="670" y="240" as="targetPoint" />
          </mxGeometry>
        </mxCell>
        <mxCell id="8cPuCwgMG0-DC93ZxVvM-9" value="shard1-1" style="shape=cylinder3;whiteSpace=wrap;html=1;boundedLbl=1;backgroundOutline=1;size=15;" vertex="1" parent="1">
          <mxGeometry x="750" y="170" width="60" height="80" as="geometry" />
        </mxCell>
        <mxCell id="8cPuCwgMG0-DC93ZxVvM-10" value="shard2-1" style="shape=cylinder3;whiteSpace=wrap;html=1;boundedLbl=1;backgroundOutline=1;size=15;" vertex="1" parent="1">
          <mxGeometry x="750" y="370" width="60" height="80" as="geometry" />
        </mxCell>
        <mxCell id="8cPuCwgMG0-DC93ZxVvM-14" value="" style="curved=1;endArrow=classic;html=1;rounded=0;exitX=1;exitY=0.5;exitDx=0;exitDy=0;exitPerimeter=0;" edge="1" parent="1" source="8cPuCwgMG0-DC93ZxVvM-9">
          <mxGeometry width="50" height="50" relative="1" as="geometry">
            <mxPoint x="810" y="225" as="sourcePoint" />
            <mxPoint x="870" y="160" as="targetPoint" />
            <Array as="points">
              <mxPoint x="840" y="210" />
              <mxPoint x="830" y="175" />
            </Array>
          </mxGeometry>
        </mxCell>
        <mxCell id="8cPuCwgMG0-DC93ZxVvM-15" value="shard1-2" style="shape=cylinder3;whiteSpace=wrap;html=1;boundedLbl=1;backgroundOutline=1;size=15;" vertex="1" parent="1">
          <mxGeometry x="870" y="110" width="60" height="80" as="geometry" />
        </mxCell>
        <mxCell id="8cPuCwgMG0-DC93ZxVvM-16" value="" style="curved=1;endArrow=classic;html=1;rounded=0;exitX=1;exitY=0.5;exitDx=0;exitDy=0;exitPerimeter=0;entryX=0;entryY=0;entryDx=0;entryDy=27.5;entryPerimeter=0;" edge="1" parent="1" source="8cPuCwgMG0-DC93ZxVvM-9" target="8cPuCwgMG0-DC93ZxVvM-17">
          <mxGeometry width="50" height="50" relative="1" as="geometry">
            <mxPoint x="820" y="270" as="sourcePoint" />
            <mxPoint x="880" y="250" as="targetPoint" />
            <Array as="points">
              <mxPoint x="850" y="240" />
            </Array>
          </mxGeometry>
        </mxCell>
        <mxCell id="8cPuCwgMG0-DC93ZxVvM-17" value="shard1-3" style="shape=cylinder3;whiteSpace=wrap;html=1;boundedLbl=1;backgroundOutline=1;size=15;" vertex="1" parent="1">
          <mxGeometry x="870" y="200" width="60" height="80" as="geometry" />
        </mxCell>
        <mxCell id="8cPuCwgMG0-DC93ZxVvM-18" value="shard2-2" style="shape=cylinder3;whiteSpace=wrap;html=1;boundedLbl=1;backgroundOutline=1;size=15;" vertex="1" parent="1">
          <mxGeometry x="870" y="330" width="60" height="80" as="geometry" />
        </mxCell>
        <mxCell id="8cPuCwgMG0-DC93ZxVvM-19" value="shard2-3" style="shape=cylinder3;whiteSpace=wrap;html=1;boundedLbl=1;backgroundOutline=1;size=15;" vertex="1" parent="1">
          <mxGeometry x="870" y="420" width="60" height="80" as="geometry" />
        </mxCell>
        <mxCell id="8cPuCwgMG0-DC93ZxVvM-20" value="" style="curved=1;endArrow=classic;html=1;rounded=0;" edge="1" parent="1">
          <mxGeometry width="50" height="50" relative="1" as="geometry">
            <mxPoint x="810" y="435" as="sourcePoint" />
            <mxPoint x="870" y="370" as="targetPoint" />
            <Array as="points">
              <mxPoint x="840" y="420" />
              <mxPoint x="830" y="385" />
            </Array>
          </mxGeometry>
        </mxCell>
        <mxCell id="8cPuCwgMG0-DC93ZxVvM-21" value="" style="curved=1;endArrow=classic;html=1;rounded=0;exitX=1;exitY=0.5;exitDx=0;exitDy=0;exitPerimeter=0;entryX=0;entryY=0;entryDx=0;entryDy=27.5;entryPerimeter=0;" edge="1" parent="1">
          <mxGeometry width="50" height="50" relative="1" as="geometry">
            <mxPoint x="810" y="440" as="sourcePoint" />
            <mxPoint x="870" y="448" as="targetPoint" />
            <Array as="points">
              <mxPoint x="850" y="450" />
            </Array>
          </mxGeometry>
        </mxCell>
        <mxCell id="8cPuCwgMG0-DC93ZxVvM-27" value="" style="curved=1;endArrow=classic;html=1;rounded=0;" edge="1" parent="1">
          <mxGeometry width="50" height="50" relative="1" as="geometry">
            <mxPoint x="680" y="300" as="sourcePoint" />
            <mxPoint x="720" y="250" as="targetPoint" />
            <Array as="points">
              <mxPoint x="700" y="250" />
            </Array>
          </mxGeometry>
        </mxCell>
        <mxCell id="8cPuCwgMG0-DC93ZxVvM-28" value="" style="curved=1;endArrow=classic;html=1;rounded=0;exitX=0.992;exitY=0.92;exitDx=0;exitDy=0;exitPerimeter=0;" edge="1" parent="1" source="8cPuCwgMG0-DC93ZxVvM-1">
          <mxGeometry width="50" height="50" relative="1" as="geometry">
            <mxPoint x="670" y="410" as="sourcePoint" />
            <mxPoint x="720" y="360" as="targetPoint" />
            <Array as="points">
              <mxPoint x="700" y="360" />
            </Array>
          </mxGeometry>
        </mxCell>
        <mxCell id="8cPuCwgMG0-DC93ZxVvM-30" value="redis&lt;div&gt;кэш&lt;/div&gt;" style="shape=cylinder3;whiteSpace=wrap;html=1;boundedLbl=1;backgroundOutline=1;size=15;" vertex="1" parent="1">
          <mxGeometry x="410" y="410" width="60" height="80" as="geometry" />
        </mxCell>
        <mxCell id="8cPuCwgMG0-DC93ZxVvM-33" value="Партиции" style="text;html=1;align=center;verticalAlign=middle;resizable=0;points=[];autosize=1;strokeColor=none;fillColor=none;" vertex="1" parent="1">
          <mxGeometry x="750" y="100" width="80" height="30" as="geometry" />
        </mxCell>
        <mxCell id="8cPuCwgMG0-DC93ZxVvM-34" value="Партиции" style="text;html=1;align=center;verticalAlign=middle;resizable=0;points=[];autosize=1;strokeColor=none;fillColor=none;" vertex="1" parent="1">
          <mxGeometry x="750" y="330" width="80" height="30" as="geometry" />
        </mxCell>
      </root>
    </mxGraphModel>
  </diagram>
</mxfile>
